<?xml version="1.0" standalone="no"?>
<!DOCTYPE svg PUBLIC "-//W3C//DTD SVG 20010904//EN"
 "http://www.w3.org/TR/2001/REC-SVG-20010904/DTD/svg10.dtd">
<svg version="1.0" xmlns="http://www.w3.org/2000/svg"
 width="1000.000000pt" height="1000.000000pt" viewBox="0 0 1000.000000 1000.000000"
 preserveAspectRatio="xMidYMid meet">
<g transform="translate(0.000000,1000.000000) scale(0.100000,-0.100000)"
fill="#000000" stroke="none">
<path d="M0 5000 l0 -5000 5000 0 5000 0 0 5000 0 5000 -5000 0 -5000 0 0
-5000z m4393 3890 c262 -16 616 -64 917 -125 574 -116 723 -165 1110 -361 212
-107 312 -179 383 -274 91 -123 109 -141 285 -274 313 -237 377 -300 591 -586
101 -135 129 -183 219 -365 99 -204 103 -215 133 -360 41 -202 46 -310 24
-468 -27 -196 -21 -212 119 -311 109 -78 144 -122 224 -281 98 -197 119 -365
72 -590 -19 -93 -34 -133 -102 -269 -93 -186 -159 -277 -314 -437 -139 -144
-144 -155 -144 -373 0 -318 -27 -620 -76 -859 -33 -166 -44 -197 -140 -388
-130 -262 -218 -366 -452 -542 -127 -97 -172 -123 -430 -251 -529 -264 -807
-368 -1547 -578 -307 -87 -480 -124 -652 -140 -152 -14 -276 -4 -473 37 -105
22 -135 34 -358 144 -210 105 -261 135 -380 224 -297 225 -692 582 -855 775
-173 205 -247 317 -359 547 -105 216 -108 223 -142 385 -57 271 -75 467 -77
835 0 121 -4 290 -8 375 -8 184 -17 208 -116 321 -77 88 -125 173 -125 223 0
45 25 95 80 161 79 94 89 134 61 242 -38 149 -80 389 -92 526 -10 107 -10 167
0 272 14 160 70 456 105 552 14 37 39 105 56 151 45 125 41 159 -32 238 -41
45 -43 49 -43 109 0 57 7 75 75 216 77 158 163 284 276 408 61 67 324 289 540
456 180 139 246 205 320 317 73 111 92 128 230 196 88 44 122 55 260 82 247
48 502 60 837 40z"/>
<path d="M3960 8754 c-239 -16 -342 -33 -493 -80 -172 -54 -299 -146 -345
-249 -12 -27 -29 -61 -36 -75 -17 -31 -118 -113 -315 -255 -248 -178 -349
-261 -476 -390 -165 -166 -240 -296 -270 -466 -5 -29 -2 -41 18 -65 24 -27 30
-29 116 -32 l91 -4 -35 -61 c-141 -244 -240 -521 -290 -812 -23 -129 -30 -395
-16 -540 20 -193 64 -393 116 -526 14 -34 25 -66 25 -70 0 -4 -26 -20 -57 -35
-197 -97 -199 -249 -5 -396 34 -26 69 -51 78 -56 14 -8 17 -62 24 -483 9 -504
21 -655 66 -871 69 -326 214 -622 438 -888 165 -197 540 -554 781 -745 324
-256 630 -402 935 -445 98 -14 312 -14 424 0 251 31 1120 298 1601 492 443
178 743 357 960 573 356 354 475 764 475 1641 l0 262 74 55 c161 121 325 311
408 472 74 144 100 238 105 385 7 188 -33 323 -140 467 -79 106 -225 196 -339
209 l-59 7 20 21 c52 55 81 189 81 374 0 326 -103 632 -321 956 -185 276 -422
511 -701 695 -89 59 -99 69 -128 127 -38 78 -156 192 -273 265 -400 247 -1136
452 -1879 523 -156 15 -554 27 -658 20z m-32 -2016 c26 -18 119 -86 207 -153
88 -66 180 -132 205 -146 74 -43 90 -43 167 -3 210 112 341 172 576 264 103
40 112 42 185 36 42 -3 145 -10 227 -16 338 -24 477 -51 630 -124 176 -84 262
-167 426 -412 111 -167 142 -198 210 -210 46 -9 95 -47 118 -93 38 -73 65
-252 101 -671 24 -268 28 -282 92 -326 130 -90 275 -64 341 61 18 35 22 63 27
211 5 168 6 171 38 235 46 91 130 182 199 215 82 41 183 40 271 0 72 -34 177
-137 216 -214 65 -128 80 -305 38 -455 -72 -254 -297 -516 -630 -731 -80 -52
-95 -79 -68 -122 28 -41 39 -42 119 -9 16 7 17 -4 17 -136 0 -79 -5 -232 -10
-339 -31 -593 -123 -884 -374 -1174 -198 -229 -608 -468 -1141 -666 -392 -146
-1084 -358 -1325 -406 -123 -25 -415 -25 -530 -1 -408 88 -765 325 -1326 882
-192 191 -282 295 -376 437 -162 241 -263 516 -303 823 -15 112 -34 607 -35
922 l0 133 68 -32 c37 -18 69 -34 71 -35 1 -1 -4 -54 -13 -118 -18 -132 -21
-337 -5 -405 23 -101 105 -167 199 -158 93 9 247 99 443 260 l93 77 91 -44
c103 -49 255 -108 340 -130 78 -21 190 -22 228 -2 141 73 126 248 -51 627
l-44 95 102 105 c185 191 278 337 278 436 0 70 -29 111 -105 149 l-60 30 -185
-1 c-119 -1 -223 -7 -290 -18 -84 -13 -106 -14 -113 -4 -4 7 -43 74 -88 148
-194 328 -345 427 -478 314 -76 -66 -148 -250 -191 -488 -11 -60 -21 -111 -23
-113 -2 -1 -46 -12 -98 -23 -52 -11 -105 -23 -118 -26 -20 -6 -22 -4 -18 12 3
10 15 73 27 139 25 146 96 469 114 521 10 29 24 44 62 64 66 36 114 102 214
295 135 261 208 358 310 410 122 62 279 94 650 128 19 2 84 5 143 5 107 2 109
1 155 -30z m-1051 -1032 c56 -50 173 -221 254 -369 29 -54 62 -103 71 -108 12
-7 67 -3 166 11 278 39 493 36 509 -6 17 -45 -84 -188 -264 -373 -87 -89 -133
-143 -133 -158 0 -12 24 -70 54 -130 102 -203 155 -355 156 -444 0 -29 -4 -38
-21 -42 -60 -16 -279 54 -482 154 -66 33 -125 59 -132 59 -7 0 -50 -33 -96
-72 -46 -40 -124 -103 -174 -141 -90 -67 -235 -147 -268 -147 -11 0 -24 14
-33 35 -27 65 -14 344 25 515 8 34 7 50 -3 65 -7 11 -79 53 -160 92 -230 114
-385 230 -360 271 30 50 261 133 508 182 54 11 95 25 106 37 11 11 24 55 35
118 47 275 126 495 179 495 8 0 36 -20 63 -44z"/>
<path d="M6021 5715 c-97 -46 -237 -199 -373 -411 l-46 -72 -56 19 c-87 28
-271 67 -376 79 -242 28 -355 -47 -321 -212 21 -100 140 -299 270 -455 l61
-71 -68 -114 c-130 -219 -199 -422 -173 -509 24 -81 100 -129 204 -129 89 0
408 85 509 136 27 14 28 13 185 -144 165 -166 259 -237 350 -267 73 -24 117
-14 169 38 72 72 79 110 79 406 l0 255 135 50 c317 120 450 218 450 333 0 126
-121 212 -465 328 l-180 61 -12 122 c-24 243 -66 413 -121 496 -29 44 -99 86
-142 86 -14 0 -49 -11 -79 -25z m120 -179 c39 -83 65 -214 79 -390 14 -171 23
-209 52 -224 13 -7 83 -30 155 -52 127 -38 261 -89 347 -132 48 -24 106 -76
106 -95 0 -35 -217 -147 -443 -227 -165 -59 -160 -53 -150 -184 12 -157 9
-430 -5 -477 -21 -69 -24 -71 -74 -49 -82 37 -227 169 -436 397 -24 26 -50 47
-58 47 -8 0 -43 -12 -77 -26 -100 -43 -311 -112 -392 -129 -116 -24 -175 -19
-175 14 0 57 69 238 130 341 15 25 53 89 85 143 49 83 56 101 48 120 -6 12
-52 74 -103 136 -114 143 -169 227 -216 324 -53 112 -53 112 96 111 103 -1
148 -6 260 -33 74 -17 165 -41 202 -52 37 -11 76 -18 86 -14 11 3 61 69 112
147 145 220 276 366 328 368 7 0 27 -29 43 -64z"/>
<path d="M4183 3925 c-104 -29 -169 -78 -209 -155 -27 -53 -25 -161 5 -227 26
-58 105 -140 167 -171 59 -30 153 -52 222 -52 53 0 63 3 81 26 27 34 26 50 -4
79 -18 19 -35 25 -70 25 -53 0 -151 31 -200 63 -18 12 -46 40 -60 62 -22 34
-26 48 -22 94 3 45 9 59 35 82 53 48 145 61 267 38 52 -9 61 -9 84 9 51 38 32
102 -36 122 -67 18 -203 21 -260 5z"/>
<path d="M3495 3096 c-5 -3 -32 -7 -59 -11 -70 -10 -96 -39 -96 -108 0 -88 17
-156 65 -256 111 -229 350 -379 720 -452 103 -20 416 -17 525 4 253 51 438
140 568 274 93 97 162 255 162 373 0 50 -21 80 -70 98 -58 21 -346 46 -745 63
-246 11 -1052 22 -1070 15z m1240 -160 c444 -29 526 -39 503 -61 -30 -30 -898
-43 -1213 -17 -311 26 -529 62 -540 90 -5 13 53 14 502 9 280 -3 616 -13 748
-21z m-235 -336 c139 -18 295 -68 315 -100 9 -15 -87 -56 -180 -76 -112 -24
-405 -25 -530 -1 -135 27 -265 73 -265 95 0 10 76 45 130 61 91 28 387 39 530
21z"/>
</g>
</svg>
